<svg width="50" height="50" viewBox="0 0 50 50" fill="none" xmlns="http://www.w3.org/2000/svg">
<rect width="50" height="50" rx="25" fill="#37B2DB"/>
<rect width="50" height="50" rx="25" fill="url(#paint0_linear_124_63)" fill-opacity="0.35"/>
<mask id="mask0_124_63" style="mask-type:alpha" maskUnits="userSpaceOnUse" x="10" y="10" width="30" height="30">
<rect width="30" height="30" rx="15" transform="matrix(-1 0 0 1 40 10)" fill="white"/>
</mask>
<g mask="url(#mask0_124_63)">
<path d="M25 37.5C26.5625 37.5 28.026 37.2031 29.3906 36.6094C30.7552 36.0156 31.9427 35.2135 32.9531 34.2031C33.9635 33.1927 34.7656 32.0052 35.3594 30.6406C35.7923 29.6456 36.0674 28.598 36.1847 27.4978C36.2578 26.8113 35.6904 26.25 35 26.25C34.3096 26.25 33.7601 26.8122 33.6718 27.4969C33.4265 29.4006 32.6036 31.0526 31.2031 32.4531C29.5052 34.151 27.4375 35 25 35C22.5625 35 20.4948 34.151 18.7969 32.4531C17.099 30.7552 16.25 28.6875 16.25 26.25C16.25 23.8125 17.099 21.7448 18.7969 20.0469C20.4948 18.349 22.5625 17.5 25 17.5C25.0692 17.5 25.1038 17.5837 25.0549 17.6326L23.8105 18.877C23.4994 19.1881 23.4949 19.6912 23.8005 20.0077L24.1097 20.3279C24.5988 20.8345 25.4084 20.8416 25.9064 20.3436L27.5219 18.7281C28.8905 17.3595 28.8905 15.1405 27.5219 13.7719L25.9064 12.1564C25.4084 11.6584 24.5988 11.6655 24.1097 12.1721L23.8005 12.4923C23.4949 12.8088 23.4994 13.3119 23.8105 13.623L25.0549 14.8674C25.1038 14.9163 25.0692 15 25 15C23.4375 15 21.974 15.2969 20.6094 15.8906C19.2448 16.4844 18.0573 17.2865 17.0469 18.2969C16.0365 19.3073 15.2344 20.4948 14.6406 21.8594C14.0469 23.224 13.75 24.6875 13.75 26.25C13.75 27.8125 14.0469 29.276 14.6406 30.6406C15.2344 32.0052 16.0365 33.1927 17.0469 34.2031C18.0573 35.2135 19.2448 36.0156 20.6094 36.6094C21.974 37.2031 23.4375 37.5 25 37.5Z" fill="white"/>
</g>
<defs>
<linearGradient id="paint0_linear_124_63" x1="13.5714" y1="50" x2="16.4286" y2="17.1429" gradientUnits="userSpaceOnUse">
<stop stop-color="#2B6A6F" stop-opacity="0.77"/>
<stop offset="1" stop-opacity="0"/>
</linearGradient>
</defs>
</svg>
